<svg xmlns="http://www.w3.org/2000/svg" width="548.371" height="555.279" viewBox="0 0 548.371 555.279">
  <metadata><?xpacket begin="﻿" id="W5M0MpCehiHzreSzNTczkc9d"?>
<x:xmpmeta xmlns:x="adobe:ns:meta/" x:xmptk="Adobe XMP Core 5.6-c142 79.160924, 2017/07/13-01:06:39        ">
   <rdf:RDF xmlns:rdf="http://www.w3.org/1999/02/22-rdf-syntax-ns#">
      <rdf:Description rdf:about=""/>
   </rdf:RDF>
</x:xmpmeta>
                                                                                                    
                                                                                                    
                                                                                                    
                                                                                                    
                                                                                                    
                                                                                                    
                                                                                                    
                                                                                                    
                                                                                                    
                                                                                                    
                                                                                                    
                                                                                                    
                                                                                                    
                                                                                                    
                                                                                                    
                                                                                                    
                                                                                                    
                                                                                                    
                                                                                                    
                                                                                                    
                           
<?xpacket end="w"?></metadata>
<defs>
    <style>
      .cls-1 {
        fill: #009bf3;
        fill-rule: evenodd;
      }
    </style>
  </defs>
  <path class="cls-1" d="M797.573,1028.32h-258.4c-29.016-7.18-56.014-20.83-64.715-47.762V514.868l11.016-17.452c9.824-12.323,25.852-18.5,43.143-23.422,11.918-3.392,34.586,3.082,44.52,5.052l93.172,13.778c28.058,5.4,59.844,5.513,94.09,5.511,6.357,0,34.364-1.541,37.176.918l48.652,67.512c3.814,5.354,12.56,22.013,17.9,24.34l65.633-92.77,92.712,0.459V943.358c0,14.114,1.94,32.969-3.21,42.252-12.47,22.44-32.862,35.38-61.964,41.33q-13.538.465-27.079,0.92c-0.306-.15-0.612-0.3-0.918-0.46q-0.23-53.495-.459-107.005l-0.918.46c-1.562,4.862-17.688,31.164-22.49,29.851-9.149-4.374-22.942-37.4-31.21-46.385h-0.459c-1.946,18.011,5.366,66.694-2.3,78.534-10.015,1.661-28.684,2.783-36.259-2.3-2.6-10.238,0-29.807,0-43.17q0.23-43.626.459-87.26c4.085-2.849,6.844-4.129,14.228-4.133h22.949c13.393,4.319,23.269,34.01,34.882,43.171h0.918L928.381,858.4l0.918,0.459q0.23,29.85.459,59.7l0.918-.459,6.425-12.4h1.836q0.918,27.554,1.836,55.111c0,6.94-1.633,18.354,2.754,21.126,2.264,1.746,32.49,1.69,34.423-.918,3.128-4.22,2.455-22.5,1.377-29.393q-0.459-35.589-.918-71.185c0.5-9.658,2.655-24.312-1.377-31.23-13.157-4.7-42.521-4.446-46.815,7.807l-0.918-.459q-0.23-115.722-.459-231.467h-0.459q-32.355,43.625-64.715,87.259l-1.836-1.378-63.339-85.881h-0.918V950.247c0,6.455,2.149,20.888-.917,25.26-2-14.072-20.569-31.041-23.867-46.386,18.473-13.754,33.152-48.221,9.638-68.889-18.839-16.559-35.029-11.072-67.01-13.778l-35.341-.918c-6.576,2.821-4.357,23.67-4.13,33.526q0.459,20.434.917,40.874c-2.292,14.183-5.166,46.91-.917,59.245,7.1,3.875,27.35,4.308,37.176,1.837,4.888-7.2,4.2-31.113,3.213-41.334l0.918-.918h13.31c6.726,2.961,18.054,36.94,26.621,42.252,5.107,3.166,17.518.165,25.243,1.378,6.06,0.95,10.875-.632,15.146-2.3v48.221ZM619.492,513.031l-18.359,1.378c-16.564,2.856-50.983,6-55.995,18.829-2.724,6.975,1.154,20.775,2.295,28.015,1.584,10.05-.581,18.786,5.049,24.341l25.243-6.429c25.266-6.322,55.509-3,59.667,20.666,1.055,6.006-1.274,11.471-3.213,14.7-13.532,22.51-44.937,2.674-68.387,8.266-6.115,9.069-8.073,37.717-4.59,51.9,23.416,16.25,85.137-14.186,92.254,23.881,4.529,24.227-26.395,36.9-51.4,32.149-10.438-1.983-20.379-5.394-29.374-8.726l-17.9-5.971c-2.265,1.223-4.548,2.6-5.508,5.052q-3.213,13.546-6.426,27.1c-3.033,8.986-9.091,17.657-9.638,28.474,8.178,12.084,48.452,16.985,67.01,20.207l22.031,0.919c51.355,7.889,99.932-18.791,113.366-50.978,5.752-13.782,9.569-38.622,3.213-55.571A71.1,71.1,0,0,0,709.91,655.4l-14.229-6.889,0.459-.919c27.294-9.642,47.766-59.656,28-92.311C705.4,524.326,666.47,513.279,619.492,513.031Zm-31.21,333.423-20.2,3.215c-13.9,4.213-31.2,15.33-39.472,25.719-26.924,33.8-12.1,76.406,16.982,96.445,17.216,11.864,49.2,16.5,72.059,8.266,6.306-2.271,19.652-4.28,17.9-12.4-1.432-8.028-12.023-20.627-18.818-23.422-6.639-1.085-18.534,7.649-30.751,5.511-25.764-4.508-42.18-34.1-23.867-57.867,7.479-9.707,24.536-16.449,40.849-10.563,4.679,1.689,11.649,7.607,16.982,6.43,7.444-1.164,22.8-20.2,16.064-28.934C629.928,850.968,603.318,846.163,588.282,846.454Zm138.61,28.934c15.415-.677,29.906,3.834,23.407,21.126-1.335,3.552-2.65,6.833-5.507,8.726-6.294,4.167-27.076,3.309-28.916-4.134-1.381-5.586-1.388-22.8.918-24.34Z" transform="translate(-474.469 -473.031)"/>
</svg>
